<?xml version="1.0" standalone="no"?>
<!DOCTYPE svg PUBLIC "-//W3C//DTD SVG 20010904//EN"
 "http://www.w3.org/TR/2001/REC-SVG-20010904/DTD/svg10.dtd">
<svg version="1.0" xmlns="http://www.w3.org/2000/svg"
 width="150.000000pt" height="134.000000pt" viewBox="0 0 150.000000 134.000000"
 preserveAspectRatio="xMidYMid meet">
<metadata>
Created by potrace 1.10, written by Peter Selinger 2001-2011
</metadata>
<g transform="translate(0.000000,134.000000) scale(0.050000,-0.050000)"
fill="#254eec" stroke="none">
<path d="M525 2659 c-670 -132 -689 -879 -31 -1225 297 -155 600 -189 1029
-114 125 22 234 40 242 40 8 0 -12 -37 -45 -83 -199 -275 96 -650 530 -672
326 -17 484 238 324 523 -73 131 -58 135 51 13 488 -542 -61 -1085 -758 -750
-322 155 -477 370 -477 663 l0 185 -80 -12 c-271 -41 -201 -557 118 -875 599
-598 1678 -364 1533 332 -42 202 -226 500 -286 463 -12 -8 -15 -4 -7 9 16 27
-113 125 -273 206 -199 101 -307 119 -835 137 -627 21 -805 69 -1044 279 -386
341 -208 864 293 862 90 -1 128 -31 58 -46 -136 -29 -237 -130 -268 -269 -84
-369 537 -700 831 -443 l66 59 -19 -83 c-10 -45 -32 -114 -48 -154 -17 -39
-26 -84 -20 -99 6 -15 2 -22 -9 -15 -11 7 -20 3 -20 -9 0 -11 30 -21 67 -21
125 0 191 431 105 679 -106 305 -596 505 -1027 420z m764 -166 c182 -98 231
-311 90 -384 -251 -129 -634 190 -449 375 85 85 211 88 359 9z m978 -1118
c163 -48 293 -243 234 -353 -114 -213 -561 -52 -561 202 0 141 142 207 327
151z"/>
</g>
</svg>
